<?xml version="1.0" encoding="UTF-8" standalone="no"?>
<!-- Created with Inkscape (http://www.inkscape.org/) -->

<svg
   xmlns:dc="http://purl.org/dc/elements/1.1/"
   xmlns:cc="http://creativecommons.org/ns#"
   xmlns:rdf="http://www.w3.org/1999/02/22-rdf-syntax-ns#"
   xmlns:svg="http://www.w3.org/2000/svg"
   xmlns="http://www.w3.org/2000/svg"
   xmlns:xlink="http://www.w3.org/1999/xlink"
   xmlns:sodipodi="http://sodipodi.sourceforge.net/DTD/sodipodi-0.dtd"
   xmlns:inkscape="http://www.inkscape.org/namespaces/inkscape"
   version="1.0"
   width="64"
   height="64"
   id="svg2031"
   inkscape:version="0.48.3.1 r9886"
   sodipodi:docname="logo.svg"
   inkscape:export-filename="logo-420.png"
   inkscape:export-xdpi="590.625"
   inkscape:export-ydpi="590.625">
  <sodipodi:namedview
     pagecolor="#ffffff"
     bordercolor="#666666"
     borderopacity="1"
     objecttolerance="10"
     gridtolerance="10"
     guidetolerance="10"
     inkscape:pageopacity="1"
     inkscape:pageshadow="2"
     inkscape:window-width="1457"
     inkscape:window-height="1023"
     id="namedview26"
     showgrid="false"
     inkscape:zoom="2.7656251"
     inkscape:cx="32"
     inkscape:cy="46.463276"
     inkscape:window-x="165"
     inkscape:window-y="122"
     inkscape:window-maximized="0"
     inkscape:current-layer="layer3"
     width="64px" />
  <metadata
     id="metadata28">
    <rdf:RDF>
      <cc:Work
         rdf:about="">
        <dc:format>image/svg+xml</dc:format>
        <dc:type
           rdf:resource="http://purl.org/dc/dcmitype/StillImage" />
        <dc:title></dc:title>
      </cc:Work>
    </rdf:RDF>
  </metadata>
  <defs
     id="defs2033">
    <linearGradient
       inkscape:collect="always"
       id="linearGradient4988">
      <stop
         style="stop-color:#0f0c01;stop-opacity:1;"
         offset="0"
         id="stop4990" />
      <stop
         style="stop-color:#0f0c01;stop-opacity:0;"
         offset="1"
         id="stop4992" />
    </linearGradient>
    <linearGradient
       id="linearGradient5265"
       inkscape:collect="always">
      <stop
         id="stop5267"
         offset="0"
         style="stop-color:#e0c4a0;stop-opacity:1;" />
      <stop
         id="stop5269"
         offset="1"
         style="stop-color:#e0c4a0;stop-opacity:0;" />
    </linearGradient>
    <filter
       color-interpolation-filters="sRGB"
       x="0"
       y="0"
       width="1"
       height="1"
       inkscape:menu="Shadows and Glows"
       inkscape:menu-tooltip="Darken the edges with an inner blur"
       inkscape:label="Darken edges"
       id="filter4133">
      <feColorMatrix
         type="luminanceToAlpha"
         result="result2"
         id="feColorMatrix4135" />
      <feDiffuseLighting
         surfaceScale="-10"
         result="result1"
         diffuseConstant="0.6"
         id="feDiffuseLighting4137">
        <feDistantLight
           elevation="35"
           azimuth="225"
           id="feDistantLight4139" />
      </feDiffuseLighting>
      <feComposite
         operator="arithmetic"
         in="result1"
         k1="1.5"
         k3="0.5"
         result="result3"
         in2="SourceGraphic"
         id="feComposite4141" />
      <feComposite
         in="result3"
         operator="in"
         result="result5"
         in2="result3"
         id="feComposite4143" />
      <feBlend
         in="result5"
         mode="normal"
         result="result6"
         in2="result1"
         id="feBlend4145" />
      <feComposite
         k2="1"
         operator="arithmetic"
         result="result7"
         in2="result6"
         id="feComposite4147" />
      <feComposite
         operator="in"
         in="result7"
         in2="SourceGraphic"
         id="feComposite4149"
         result="fbSourceGraphic" />
      <feColorMatrix
         result="fbSourceGraphicAlpha"
         in="fbSourceGraphic"
         values="0 0 0 -1 0 0 0 0 -1 0 0 0 0 -1 0 0 0 0 1 0"
         id="feColorMatrix4274" />
      <feGaussianBlur
         id="feGaussianBlur4276"
         result="result6"
         stdDeviation="1.5"
         in="fbSourceGraphic" />
      <feComposite
         id="feComposite4278"
         in2="result6"
         operator="atop"
         in="fbSourceGraphic"
         result="result8" />
      <feComposite
         id="feComposite4280"
         in2="fbSourceGraphicAlpha"
         in="result8"
         operator="atop"
         result="result9" />
    </filter>
    <filter
       color-interpolation-filters="sRGB"
       inkscape:menu-tooltip="Ridged border with inner bevel"
       inkscape:menu="Bevels"
       inkscape:label="Drop Shadow"
       id="filter5249"
       style="color-interpolation-filters:sRGB;">
      <feMorphology
         result="result91"
         in="SourceAlpha"
         radius="4.3"
         id="feMorphology5251" />
      <feComposite
         in="SourceGraphic"
         operator="out"
         in2="result91"
         id="feComposite5253" />
      <feGaussianBlur
         stdDeviation="1.2"
         result="result0"
         id="feGaussianBlur5255" />
      <feDiffuseLighting
         result="result92"
         diffuseConstant="1"
         id="feDiffuseLighting5257">
        <feDistantLight
           azimuth="225"
           elevation="66"
           id="feDistantLight5259" />
      </feDiffuseLighting>
      <feBlend
         result="result93"
         mode="multiply"
         in2="SourceGraphic"
         id="feBlend5261" />
      <feComposite
         operator="in"
         in2="SourceAlpha"
         id="feComposite5263"
         result="fbSourceGraphic" />
      <feColorMatrix
         result="fbSourceGraphicAlpha"
         in="fbSourceGraphic"
         values="0 0 0 -1 0 0 0 0 -1 0 0 0 0 -1 0 0 0 0 1 0"
         id="feColorMatrix4882" />
      <feFlood
         id="feFlood4884"
         flood-opacity="0.6"
         flood-color="rgb(0,0,0)"
         result="flood"
         in="fbSourceGraphic" />
      <feComposite
         id="feComposite4886"
         in2="fbSourceGraphic"
         in="flood"
         operator="in"
         result="composite1" />
      <feGaussianBlur
         id="feGaussianBlur4888"
         in="composite"
         stdDeviation="4"
         result="blur" />
      <feOffset
         id="feOffset4890"
         dx="4"
         dy="6"
         result="offset" />
      <feComposite
         id="feComposite4892"
         in2="offset"
         in="fbSourceGraphic"
         operator="over"
         result="composite2" />
    </filter>
    <radialGradient
       r="28.916797"
       fy="237.17791"
       fx="47.466364"
       cy="237.17791"
       cx="47.466364"
       gradientUnits="userSpaceOnUse"
       id="radialGradient4677"
       xlink:href="#linearGradient5265"
       inkscape:collect="always" />
    <filter
       id="filter4828"
       inkscape:label="Darken edges"
       inkscape:menu="Shadows and Glows"
       inkscape:menu-tooltip="Darken the edges with an inner blur"
       color-interpolation-filters="sRGB">
      <feGaussianBlur
         id="feGaussianBlur4830"
         stdDeviation="6"
         in="SourceGraphic"
         result="result0" />
      <feDiffuseLighting
         id="feDiffuseLighting4832"
         lighting-color="rgb(255,255,255)"
         diffuseConstant="1"
         surfaceScale="4"
         result="result5">
        <feDistantLight
           id="feDistantLight4834"
           elevation="45"
           azimuth="235" />
      </feDiffuseLighting>
      <feComposite
         id="feComposite4836"
         in2="SourceGraphic"
         k1="1.4"
         in="result5"
         result="fbSourceGraphic"
         operator="arithmetic" />
      <feGaussianBlur
         id="feGaussianBlur4838"
         result="result0"
         in="fbSourceGraphic"
         stdDeviation="6" />
      <feSpecularLighting
         id="feSpecularLighting4840"
         specularExponent="25"
         specularConstant="1"
         surfaceScale="4"
         lighting-color="rgb(255,255,255)"
         result="result1"
         in="result0">
        <feDistantLight
           id="feDistantLight4842"
           azimuth="235"
           elevation="45" />
      </feSpecularLighting>
      <feComposite
         id="feComposite4844"
         in2="result1"
         k3="1"
         k2="1"
         operator="arithmetic"
         result="result4"
         in="fbSourceGraphic" />
      <feComposite
         id="feComposite4846"
         in2="SourceGraphic"
         operator="in"
         result="fbSourceGraphic"
         in="result4" />
      <feColorMatrix
         result="fbSourceGraphicAlpha"
         in="fbSourceGraphic"
         values="0 0 0 -1 0 0 0 0 -1 0 0 0 0 -1 0 0 0 0 1 0"
         id="feColorMatrix4856" />
      <feGaussianBlur
         id="feGaussianBlur4858"
         stdDeviation="6"
         in="fbSourceGraphic"
         result="result0" />
      <feDiffuseLighting
         id="feDiffuseLighting4860"
         diffuseConstant="1"
         surfaceScale="10"
         result="result5">
        <feDistantLight
           id="feDistantLight4862"
           elevation="25"
           azimuth="235" />
      </feDiffuseLighting>
      <feComposite
         id="feComposite4864"
         in2="fbSourceGraphic"
         k1="1"
         in="result5"
         result="fbSourceGraphic"
         operator="arithmetic"
         k2="0"
         k3="0.6" />
      <feColorMatrix
         result="fbSourceGraphicAlpha"
         in="fbSourceGraphic"
         values="0 0 0 -1 0 0 0 0 -1 0 0 0 0 -1 0 0 0 0 1 0"
         id="feColorMatrix4874" />
      <feGaussianBlur
         id="feGaussianBlur4876"
         result="result6"
         stdDeviation="1.5"
         in="fbSourceGraphic" />
      <feComposite
         id="feComposite4878"
         in2="result6"
         operator="atop"
         in="fbSourceGraphic"
         result="result8" />
      <feComposite
         id="feComposite4880"
         in2="fbSourceGraphicAlpha"
         in="result8"
         operator="atop"
         result="result9" />
    </filter>
    <radialGradient
       inkscape:collect="always"
       xlink:href="#linearGradient5265"
       id="radialGradient4872"
       cx="32"
       cy="-48"
       fx="32"
       fy="-48"
       r="38.400002"
       gradientTransform="matrix(1,0,0,1.0019531,0,0.09375)"
       gradientUnits="userSpaceOnUse" />
    <linearGradient
       inkscape:collect="always"
       xlink:href="#linearGradient4988"
       id="linearGradient4998"
       x1="0.59040833"
       y1="188.63066"
       x2="106.24611"
       y2="299.19312"
       gradientUnits="userSpaceOnUse" />
    <filter
       inkscape:collect="always"
       id="filter4250">
      <feGaussianBlur
         inkscape:collect="always"
         stdDeviation="0.20490519"
         id="feGaussianBlur4252" />
    </filter>
    <filter
       id="filter4282"
       inkscape:label="Emboss"
       inkscape:menu-tooltip="Emboss effect : Colors of the original images are preserved or modified by Blend"
       inkscape:menu="Bumps"
       height="1"
       width="1"
       y="0"
       x="0"
       color-interpolation-filters="sRGB">
      <feColorMatrix
         id="feColorMatrix4284"
         result="result2"
         type="luminanceToAlpha" />
      <feDiffuseLighting
         id="feDiffuseLighting4286"
         diffuseConstant="0.6"
         result="result1"
         surfaceScale="-10">
        <feDistantLight
           id="feDistantLight4288"
           azimuth="225"
           elevation="35" />
      </feDiffuseLighting>
      <feComposite
         id="feComposite4290"
         in2="SourceGraphic"
         result="result3"
         k3="0.5"
         k1="1.5"
         in="result1"
         operator="arithmetic" />
      <feComposite
         id="feComposite4292"
         in2="result3"
         result="result5"
         operator="in"
         in="result3" />
      <feBlend
         id="feBlend4294"
         in2="result1"
         result="result6"
         mode="normal"
         in="result5" />
      <feComposite
         id="feComposite4296"
         in2="result6"
         result="result7"
         operator="arithmetic"
         k2="1" />
      <feComposite
         id="feComposite4298"
         in2="SourceGraphic"
         in="result7"
         operator="in" />
    </filter>
  </defs>
  <g
     style="display:inline"
     inkscape:label="Helper"
     id="layer4"
     inkscape:groupmode="layer">
    <rect
       ry="2.2506945"
       rx="1160.4464"
       y="-127.3262"
       x="-127.3262"
       height="318.6524"
       width="318.6524"
       id="rect3683"
       style="fill:none;stroke:#000000;stroke-width:1.34758639;stroke-linecap:round;stroke-linejoin:round;stroke-miterlimit:4;stroke-opacity:1;stroke-dasharray:none;stroke-dashoffset:0;display:inline" />
  </g>
  <g
     style="display:inline"
     inkscape:label="Frame"
     id="layer5"
     inkscape:groupmode="layer">
    <path
       style="fill:#d9c2a7;fill-opacity:1;fill-rule:evenodd;stroke:none"
       d="M 4.53125,-0.0625 C 3.2325069,-0.0625 2.1163372,0.645057 1.5,1.6875 0.59737257,2.314693 0,3.348829 0,4.53125 0,5.250519 0.21928295,5.914466 0.59375,6.46875 0.2286615,7.018495 0,7.665613 0,8.375 0,9.277799 0.37281558,10.101136 0.9375,10.71875 0.37281558,11.336364 0,12.128451 0,13.03125 0,13.934049 0.37281558,14.757386 0.9375,15.375 0.37281558,15.992614 0,16.784701 0,17.6875 0,18.592147 0.3707565,19.413212 0.9375,20.03125 0.37281558,20.648864 0,21.440951 0,22.34375 0,23.248397 0.3707565,24.069462 0.9375,24.6875 0.37281558,25.305114 0,26.097201 0,27 0,27.904647 0.3707565,28.725712 0.9375,29.34375 0.37281558,29.961364 0,30.753451 0,31.65625 0,32.553976 0.34720284,33.383572 0.90625,34 0.35649808,34.614388 0,35.423178 0,36.3125 0,37.201823 0.35649808,38.010612 0.90625,38.625 0.34720284,39.241428 0,40.071024 0,40.96875 0,41.866476 0.34720284,42.696072 0.90625,43.3125 0.35649808,43.926888 0,44.735678 0,45.625 0,46.514323 0.35649808,47.323112 0.90625,47.9375 0.34720284,48.553928 0,49.383524 0,50.28125 0,51.184049 0.37281558,51.976136 0.9375,52.59375 0.3707565,53.211788 0,54.032853 0,54.9375 0,55.840299 0.37281558,56.632386 0.9375,57.25 0.3707565,57.868038 0,58.689103 0,59.59375 0,60.817495 0.63738098,61.881422 1.59375,62.5 c 0.6363969,0.941991 1.7151223,1.5625 2.9375,1.5625 1.1200508,0 2.1010787,-0.532017 2.75,-1.34375 0.6489213,0.811733 1.6299492,1.34375 2.75,1.34375 1.120051,0 2.101079,-0.532017 2.75,-1.34375 0.648921,0.811733 1.629949,1.34375 2.75,1.34375 1.111481,0 2.100747,-0.511421 2.75,-1.3125 0.649353,0.796945 1.641853,1.3125 2.75,1.3125 1.108147,0 2.069397,-0.515555 2.71875,-1.3125 0.649253,0.801079 1.638519,1.3125 2.75,1.3125 1.120051,0 2.101079,-0.532017 2.75,-1.34375 0.648921,0.811733 1.629949,1.34375 2.75,1.34375 1.120051,0 2.101079,-0.532017 2.75,-1.34375 0.648921,0.811733 1.629949,1.34375 2.75,1.34375 1.111481,0 2.100747,-0.511421 2.75,-1.3125 0.649353,0.796945 1.610603,1.3125 2.71875,1.3125 1.108147,0 2.100647,-0.515555 2.75,-1.3125 0.649253,0.801079 1.638519,1.3125 2.75,1.3125 1.120051,0 2.101079,-0.532017 2.75,-1.34375 0.648921,0.811733 1.629949,1.34375 2.75,1.34375 1.120051,0 2.101079,-0.532017 2.75,-1.34375 0.648921,0.811733 1.629949,1.34375 2.75,1.34375 1.222378,0 2.301103,-0.620509 2.9375,-1.5625 C 63.362619,61.881422 64,60.817495 64,59.59375 64,58.689103 63.629244,57.868038 63.0625,57.25 63.627184,56.632386 64,55.840299 64,54.9375 64,54.032853 63.629244,53.211788 63.0625,52.59375 63.627184,51.976136 64,51.184049 64,50.28125 64,49.383524 63.652797,48.553928 63.09375,47.9375 63.643502,47.323112 64,46.514323 64,45.625 64,44.735678 63.643502,43.926888 63.09375,43.3125 63.652797,42.696072 64,41.866476 64,40.96875 64,40.071024 63.652797,39.241428 63.09375,38.625 63.643502,38.010612 64,37.201823 64,36.3125 64,35.423178 63.643502,34.614388 63.09375,34 63.652797,33.383572 64,32.553976 64,31.65625 64,30.753451 63.627184,29.961364 63.0625,29.34375 63.629244,28.725712 64,27.904647 64,27 64,26.097201 63.627184,25.305114 63.0625,24.6875 63.629244,24.069462 64,23.248397 64,22.34375 64,21.440951 63.627184,20.648864 63.0625,20.03125 63.629244,19.413212 64,18.592147 64,17.6875 64,16.784701 63.627184,15.992614 63.0625,15.375 63.627184,14.757386 64,13.934049 64,13.03125 64,12.128451 63.627184,11.336364 63.0625,10.71875 63.627184,10.101136 64,9.277799 64,8.375 64,7.665613 63.771339,7.018495 63.40625,6.46875 c 0.0051,-0.0076 -0.0051,-0.02359 0,-0.03125 C 63.771339,5.887756 64,5.240637 64,4.53125 64,3.348829 63.402627,2.314693 62.5,1.6875 62.48751,1.6788 62.48136,1.66477 62.46875,1.65625 c -0.621138,-1.022016 -1.716636,-1.71875 -3,-1.71875 -1.120051,0 -2.101079,0.532017 -2.75,1.34375 -0.648921,-0.811733 -1.629949,-1.34375 -2.75,-1.34375 -1.120051,0 -2.101079,0.532017 -2.75,1.34375 -0.648921,-0.811733 -1.629949,-1.34375 -2.75,-1.34375 -1.111481,0 -2.100747,0.511421 -2.75,1.3125 -0.649353,-0.796945 -1.641853,-1.3125 -2.75,-1.3125 -1.108147,0 -2.069397,0.515555 -2.71875,1.3125 -0.649253,-0.801079 -1.638519,-1.3125 -2.75,-1.3125 -1.120051,0 -2.101079,0.532017 -2.75,1.34375 C 34.101079,0.469517 33.120051,-0.0625 32,-0.0625 c -1.120051,0 -2.101079,0.532017 -2.75,1.34375 -0.648921,-0.811733 -1.629949,-1.34375 -2.75,-1.34375 -1.111481,0 -2.100747,0.511421 -2.75,1.3125 -0.649353,-0.796945 -1.610603,-1.3125 -2.71875,-1.3125 -1.108147,0 -2.100647,0.515555 -2.75,1.3125 -0.649253,-0.801079 -1.638519,-1.3125 -2.75,-1.3125 -1.120051,0 -2.101079,0.532017 -2.75,1.34375 -0.648921,-0.811733 -1.629949,-1.34375 -2.75,-1.34375 -1.1200508,0 -2.1010787,0.532017 -2.75,1.34375 C 6.6323287,0.469517 5.6513008,-0.0625 4.53125,-0.0625 z m 2.75,5.75 c 0.6489213,0.811733 1.6299492,1.34375 2.75,1.34375 1.120051,0 2.101079,-0.532017 2.75,-1.34375 0.648921,0.811733 1.629949,1.34375 2.75,1.34375 1.111481,0 2.100747,-0.511421 2.75,-1.3125 0.649353,0.796944 1.641853,1.3125 2.75,1.3125 1.108147,0 2.069397,-0.515556 2.71875,-1.3125 0.649253,0.801079 1.638519,1.3125 2.75,1.3125 1.120051,0 2.101079,-0.532017 2.75,-1.34375 0.648921,0.811733 1.629949,1.34375 2.75,1.34375 1.120051,0 2.101079,-0.532017 2.75,-1.34375 0.648921,0.811733 1.629949,1.34375 2.75,1.34375 1.111481,0 2.100747,-0.511421 2.75,-1.3125 0.649353,0.796944 1.610603,1.3125 2.71875,1.3125 1.108147,0 2.100647,-0.515556 2.75,-1.3125 0.649253,0.801079 1.638519,1.3125 2.75,1.3125 1.120051,0 2.101079,-0.532017 2.75,-1.34375 0.648921,0.811733 1.629949,1.34375 2.75,1.34375 1.120051,0 2.101079,-0.532017 2.75,-1.34375 0.260155,0.325427 0.548396,0.595561 0.90625,0.8125 -0.351506,0.54289 -0.5625,1.180105 -0.5625,1.875 0,0.900919 0.343657,1.726572 0.90625,2.34375 -0.562593,0.617178 -0.90625,1.411581 -0.90625,2.3125 0,0.900919 0.343657,1.726572 0.90625,2.34375 -0.562593,0.617178 -0.90625,1.411581 -0.90625,2.3125 0,0.903012 0.341328,1.726087 0.90625,2.34375 -0.562593,0.617178 -0.90625,1.411581 -0.90625,2.3125 0,0.903012 0.341328,1.726087 0.90625,2.34375 -0.562593,0.617178 -0.90625,1.411581 -0.90625,2.3125 0,0.903012 0.341328,1.726087 0.90625,2.34375 -0.562593,0.617178 -0.90625,1.411581 -0.90625,2.3125 0,0.903012 0.341328,1.726087 0.90625,2.34375 -0.555043,0.615562 -0.90625,1.418388 -0.90625,2.3125 0,0.894113 0.351207,1.696938 0.90625,2.3125 -0.564922,0.617663 -0.90625,1.440738 -0.90625,2.34375 0,0.903012 0.341328,1.726087 0.90625,2.34375 -0.555043,0.615562 -0.90625,1.418388 -0.90625,2.3125 0,0.894113 0.351207,1.696938 0.90625,2.3125 -0.564922,0.617663 -0.90625,1.440738 -0.90625,2.34375 0,0.900919 0.343657,1.695322 0.90625,2.3125 -0.564922,0.617663 -0.90625,1.440738 -0.90625,2.34375 0,0.900919 0.343657,1.695322 0.90625,2.3125 -0.03504,0.03831 -0.06043,0.08514 -0.09375,0.125 -0.454795,0.230513 -0.840634,0.542698 -1.15625,0.9375 -0.648921,-0.811733 -1.629949,-1.34375 -2.75,-1.34375 -1.120051,0 -2.101079,0.532017 -2.75,1.34375 -0.648921,-0.811733 -1.629949,-1.34375 -2.75,-1.34375 -1.111481,0 -2.100747,0.511421 -2.75,1.3125 -0.649353,-0.796945 -1.641853,-1.3125 -2.75,-1.3125 -1.108147,0 -2.069397,0.515555 -2.71875,1.3125 -0.649253,-0.801079 -1.638519,-1.3125 -2.75,-1.3125 -1.120051,0 -2.101079,0.532017 -2.75,1.34375 -0.648921,-0.811733 -1.629949,-1.34375 -2.75,-1.34375 -1.120051,0 -2.101079,0.532017 -2.75,1.34375 -0.648921,-0.811733 -1.629949,-1.34375 -2.75,-1.34375 -1.111481,0 -2.100747,0.511421 -2.75,1.3125 -0.649353,-0.796945 -1.610603,-1.3125 -2.71875,-1.3125 -1.108147,0 -2.100647,0.515555 -2.75,1.3125 -0.649253,-0.801079 -1.638519,-1.3125 -2.75,-1.3125 -1.120051,0 -2.101079,0.532017 -2.75,1.34375 -0.648921,-0.811733 -1.629949,-1.34375 -2.75,-1.34375 -1.1200508,0 -2.1010787,0.532017 -2.75,1.34375 C 6.9656342,57.917698 6.579795,57.605513 6.125,57.375 6.0916844,57.335142 6.0662903,57.288312 6.03125,57.25 6.5938432,56.632822 6.9375,55.838419 6.9375,54.9375 6.9375,54.034488 6.5961717,53.211413 6.03125,52.59375 6.5938432,51.976572 6.9375,51.182169 6.9375,50.28125 6.9375,49.378238 6.5961717,48.555163 6.03125,47.9375 6.5862934,47.321938 6.9375,46.519113 6.9375,45.625 6.9375,44.730888 6.5862934,43.928062 6.03125,43.3125 6.5961717,42.694837 6.9375,41.871762 6.9375,40.96875 6.9375,40.065738 6.5961717,39.242663 6.03125,38.625 6.5862934,38.009438 6.9375,37.206613 6.9375,36.3125 6.9375,35.418388 6.5862934,34.615562 6.03125,34 6.5961717,33.382337 6.9375,32.559262 6.9375,31.65625 6.9375,30.755331 6.5938432,29.960928 6.03125,29.34375 6.5961717,28.726087 6.9375,27.903012 6.9375,27 c 0,-0.900919 -0.3436568,-1.695322 -0.90625,-2.3125 0.5649217,-0.617663 0.90625,-1.440738 0.90625,-2.34375 0,-0.900919 -0.3436568,-1.695322 -0.90625,-2.3125 0.5649217,-0.617663 0.90625,-1.440738 0.90625,-2.34375 0,-0.900919 -0.3436568,-1.695322 -0.90625,-2.3125 0.5625932,-0.617178 0.90625,-1.442831 0.90625,-2.34375 0,-0.900919 -0.3436568,-1.695322 -0.90625,-2.3125 C 6.5938432,10.101572 6.9375,9.275919 6.9375,8.375 6.9375,7.680191 6.7264259,7.042849 6.375,6.5 6.732854,6.283061 7.0210945,6.012927 7.28125,5.6875 z"
       id="path4820"
       inkscape:connector-curvature="0" />
    <path
       id="path3587"
       d="m 4.53125,-80.0625 c -1.298743,0 -2.4149128,0.707557 -3.0312499,1.75 C 0.5973725,-77.685307 0,-76.651171 0,-75.46875 c 0,0.719269 0.219283,1.383216 0.59375,1.9375 C 0.2286615,-72.981505 0,-72.334387 0,-71.625 c 0,0.902799 0.3728156,1.726137 0.9375,2.34375 C 0.3728156,-68.663636 0,-67.871549 0,-66.96875 0,-66.065951 0.3728156,-65.242614 0.9375,-64.625 0.3728156,-64.007386 0,-63.215299 0,-62.3125 c 0,0.904647 0.3707565,1.725712 0.9375,2.34375 C 0.3728156,-59.351136 0,-58.559049 0,-57.65625 c 0,0.904647 0.3707565,1.725712 0.9375,2.34375 C 0.3728156,-54.694886 0,-53.902799 0,-53 c 0,0.904647 0.3707565,1.725712 0.9375,2.34375 C 0.3728156,-50.038636 0,-49.246549 0,-48.34375 0,-47.446024 0.3472029,-46.616428 0.90625,-46 0.3564981,-45.385612 0,-44.576822 0,-43.6875 c 0,0.889323 0.3564981,1.698112 0.90625,2.3125 C 0.3472029,-40.758573 0,-39.928976 0,-39.03125 c 0,0.897726 0.3472029,1.727322 0.90625,2.343749 C 0.3564981,-36.073112 0,-35.264322 0,-34.375 c 0,0.889323 0.3564981,1.698112 0.90625,2.3125 C 0.3472029,-31.446072 0,-30.616476 0,-29.71875 c 0,0.902799 0.3728156,1.694886 0.9375,2.3125 C 0.3707565,-26.788212 0,-25.967146 0,-25.0625 0,-24.159701 0.3728156,-23.367614 0.9375,-22.75 0.3707565,-22.131962 0,-21.310897 0,-20.40625 c 0,1.223745 0.6373809,2.287672 1.59375,2.90625 0.6363969,0.941991 1.7151223,1.5625 2.9375,1.5625 1.1200508,0 2.101079,-0.532017 2.75,-1.34375 0.648921,0.811733 1.629949,1.34375 2.75,1.34375 1.120051,0 2.101079,-0.532017 2.75,-1.34375 0.648921,0.811733 1.629949,1.34375 2.75,1.34375 1.111481,0 2.100747,-0.511421 2.75,-1.3125 0.649354,0.796945 1.641853,1.3125 2.75,1.3125 1.108147,0 2.069397,-0.515555 2.71875,-1.3125 0.649253,0.801079 1.638519,1.3125 2.75,1.3125 1.120051,0 2.101079,-0.532017 2.75,-1.34375 0.648921,0.811733 1.629949,1.34375 2.75,1.34375 1.120051,0 2.101079,-0.532017 2.75,-1.34375 0.648921,0.811733 1.629949,1.34375 2.75,1.34375 1.111481,0 2.100747,-0.511421 2.75,-1.3125 0.649353,0.796945 1.610603,1.3125 2.71875,1.3125 1.108147,0 2.100647,-0.515555 2.75,-1.3125 0.649253,0.801079 1.638519,1.3125 2.75,1.3125 1.120051,0 2.101079,-0.532017 2.75,-1.34375 0.648921,0.811733 1.629949,1.34375 2.75,1.34375 1.120051,0 2.101079,-0.532017 2.75,-1.34375 0.648921,0.811733 1.629949,1.34375 2.75,1.34375 1.222378,0 2.301103,-0.620509 2.9375,-1.5625 C 63.362619,-18.118578 64,-19.182505 64,-20.40625 64,-21.310897 63.629244,-22.131962 63.0625,-22.75 63.627184,-23.367614 64,-24.159701 64,-25.0625 64,-25.967146 63.629244,-26.788212 63.0625,-27.40625 63.627184,-28.023864 64,-28.815951 64,-29.71875 64,-30.616476 63.652797,-31.446072 63.09375,-32.0625 63.643502,-32.676888 64,-33.485677 64,-34.375 64,-35.264322 63.643502,-36.073112 63.09375,-36.687501 63.652797,-37.303928 64,-38.133524 64,-39.03125 64,-39.928976 63.652797,-40.758573 63.09375,-41.375 63.643502,-41.989388 64,-42.798177 64,-43.6875 64,-44.576822 63.643502,-45.385612 63.09375,-46 63.652797,-46.616428 64,-47.446024 64,-48.34375 c 0,-0.902799 -0.372816,-1.694886 -0.9375,-2.3125 C 63.629244,-51.274288 64,-52.095353 64,-53 c 0,-0.902799 -0.372816,-1.694886 -0.9375,-2.3125 0.566744,-0.618038 0.9375,-1.439103 0.9375,-2.34375 0,-0.902799 -0.372816,-1.694886 -0.9375,-2.3125 C 63.629244,-60.586788 64,-61.407853 64,-62.3125 64,-63.215299 63.627184,-64.007386 63.0625,-64.625 63.627184,-65.242614 64,-66.065951 64,-66.96875 c 0,-0.902799 -0.372816,-1.694886 -0.9375,-2.3125 C 63.627184,-69.898863 64,-70.722201 64,-71.625 c 0,-0.709387 -0.228661,-1.356505 -0.59375,-1.90625 0.0052,-0.0076 -0.0051,-0.02359 0,-0.03125 C 63.771339,-74.112244 64,-74.759363 64,-75.46875 c 0,-1.182421 -0.597373,-2.216557 -1.5,-2.84375 -0.01249,-0.0087 -0.01864,-0.02273 -0.03124,-0.03125 -0.621148,-1.022015 -1.716646,-1.71875 -3.00001,-1.71875 -1.120051,0 -2.101079,0.532017 -2.75,1.34375 -0.648921,-0.811733 -1.629949,-1.34375 -2.75,-1.34375 -1.120051,0 -2.101079,0.532017 -2.75,1.34375 -0.648921,-0.811733 -1.629949,-1.34375 -2.75,-1.34375 -1.111481,0 -2.100747,0.511421 -2.75,1.3125 -0.649353,-0.796944 -1.641853,-1.3125 -2.75,-1.3125 -1.108147,0 -2.069397,0.515556 -2.71875,1.3125 -0.649253,-0.801079 -1.638519,-1.3125 -2.75,-1.3125 -1.120051,0 -2.101079,0.532017 -2.75,1.34375 -0.648921,-0.811733 -1.629949,-1.34375 -2.75,-1.34375 -1.120051,0 -2.101079,0.532017 -2.75,1.34375 -0.648921,-0.811733 -1.629949,-1.34375 -2.75,-1.34375 -1.111481,0 -2.100747,0.511421 -2.75,1.3125 -0.649353,-0.796944 -1.610603,-1.3125 -2.71875,-1.3125 -1.108147,0 -2.100646,0.515556 -2.75,1.3125 -0.649253,-0.801079 -1.638519,-1.3125 -2.75,-1.3125 -1.120051,0 -2.101079,0.532017 -2.75,1.34375 -0.648921,-0.811733 -1.629949,-1.34375 -2.75,-1.34375 -1.120051,0 -2.101079,0.532017 -2.75,1.34375 -0.648921,-0.811733 -1.6299492,-1.34375 -2.75,-1.34375 z m 2.75,5.75 c 0.648921,0.811733 1.629949,1.34375 2.75,1.34375 1.120051,0 2.101079,-0.532017 2.75,-1.34375 0.648921,0.811733 1.629949,1.34375 2.75,1.34375 1.111481,0 2.100747,-0.511421 2.75,-1.3125 0.649354,0.796945 1.641853,1.3125 2.75,1.3125 1.108147,0 2.069397,-0.515555 2.71875,-1.3125 0.649253,0.801079 1.638519,1.3125 2.75,1.3125 1.120051,0 2.101079,-0.532017 2.75,-1.34375 0.648921,0.811733 1.629949,1.34375 2.75,1.34375 1.120051,0 2.101079,-0.532017 2.75,-1.34375 0.648921,0.811733 1.629949,1.34375 2.75,1.34375 1.111481,0 2.100747,-0.511421 2.75,-1.3125 0.649353,0.796945 1.610603,1.3125 2.71875,1.3125 1.108147,0 2.100647,-0.515555 2.75,-1.3125 0.649253,0.801079 1.638519,1.3125 2.75,1.3125 1.120051,0 2.101079,-0.532017 2.75,-1.34375 0.648921,0.811733 1.629949,1.34375 2.75,1.34375 1.120051,0 2.101079,-0.532017 2.75,-1.34375 0.260155,0.325427 0.548396,0.595562 0.90625,0.8125 -0.351506,0.54289 -0.5625,1.180105 -0.5625,1.875 0,0.900919 0.343657,1.726572 0.90625,2.34375 -0.562593,0.617178 -0.90625,1.411581 -0.90625,2.3125 0,0.900919 0.343657,1.726572 0.90625,2.34375 -0.562593,0.617178 -0.90625,1.411581 -0.90625,2.3125 0,0.903012 0.341328,1.726087 0.90625,2.34375 -0.562593,0.617178 -0.90625,1.411581 -0.90625,2.3125 0,0.903012 0.341328,1.726087 0.90625,2.34375 -0.562593,0.617178 -0.90625,1.411581 -0.90625,2.3125 0,0.903012 0.341328,1.726087 0.90625,2.34375 -0.562593,0.617178 -0.90625,1.411581 -0.90625,2.3125 0,0.903012 0.341328,1.726087 0.90625,2.34375 -0.555043,0.615562 -0.90625,1.418388 -0.90625,2.3125 0,0.894114 0.351207,1.696938 0.90625,2.3125 -0.564922,0.617663 -0.90625,1.440738 -0.90625,2.34375 0,0.903012 0.341328,1.726087 0.90625,2.343749 -0.555043,0.615563 -0.90625,1.418389 -0.90625,2.312501 0,0.894113 0.351207,1.696938 0.90625,2.3125 -0.564922,0.617663 -0.90625,1.440738 -0.90625,2.34375 0,0.900919 0.343657,1.695322 0.90625,2.3125 -0.564922,0.617663 -0.90625,1.440739 -0.90625,2.34375 0,0.900919 0.343657,1.695322 0.90625,2.3125 -0.03504,0.03831 -0.06043,0.08514 -0.09376,0.125 -0.454794,0.230514 -0.840633,0.542698 -1.156249,0.9375 -0.648921,-0.811733 -1.62995,-1.34375 -2.75,-1.34375 -1.120051,0 -2.101079,0.532017 -2.75,1.34375 -0.648921,-0.811733 -1.62995,-1.34375 -2.75,-1.34375 -1.111481,0 -2.100747,0.511421 -2.75,1.3125 -0.649354,-0.796945 -1.641853,-1.3125 -2.75,-1.3125 -1.108147,0 -2.069397,0.515555 -2.71875,1.3125 -0.649253,-0.801079 -1.638519,-1.3125 -2.75,-1.3125 -1.120052,0 -2.101079,0.532017 -2.75,1.34375 -0.648912,-0.811733 -1.62994,-1.34375 -2.749991,-1.34375 -1.120051,0 -2.101079,0.532017 -2.75,1.34375 -0.648921,-0.811733 -1.629949,-1.34375 -2.75,-1.34375 -1.111481,0 -2.100747,0.511421 -2.75,1.3125 -0.649353,-0.796945 -1.610603,-1.3125 -2.71875,-1.3125 -1.108147,0 -2.100646,0.515555 -2.75,1.3125 -0.649253,-0.801079 -1.638519,-1.3125 -2.75,-1.3125 -1.120051,0 -2.101079,0.532017 -2.75,1.34375 -0.648921,-0.811733 -1.629949,-1.34375 -2.75,-1.34375 -1.120051,0 -2.101079,0.532017 -2.75,1.34375 -0.315616,-0.394802 -0.701455,-0.706986 -1.15625,-0.9375 -0.03332,-0.03986 -0.05871,-0.08668 -0.09375,-0.125 0.562593,-0.617178 0.90625,-1.411581 0.90625,-2.3125 0,-0.903011 -0.341328,-1.726087 -0.90625,-2.34375 0.562593,-0.617178 0.90625,-1.411581 0.90625,-2.3125 0,-0.903012 -0.341328,-1.726087 -0.90625,-2.34375 0.555043,-0.615562 0.90625,-1.418387 0.90625,-2.3125 0,-0.894112 -0.351207,-1.696938 -0.90625,-2.312501 0.564922,-0.617662 0.90625,-1.440737 0.90625,-2.343749 0,-0.903012 -0.341328,-1.726087 -0.90625,-2.34375 0.555043,-0.615562 0.90625,-1.418386 0.90625,-2.3125 0,-0.894112 -0.351207,-1.696938 -0.90625,-2.3125 0.564922,-0.617663 0.90625,-1.440738 0.90625,-2.34375 0,-0.900919 -0.343657,-1.695322 -0.90625,-2.3125 C 6.596172,-51.273913 6.9375,-52.096988 6.9375,-53 c 0,-0.900919 -0.343657,-1.695322 -0.90625,-2.3125 0.564922,-0.617663 0.90625,-1.440738 0.90625,-2.34375 0,-0.900919 -0.343657,-1.695322 -0.90625,-2.3125 0.564922,-0.617663 0.90625,-1.440738 0.90625,-2.34375 0,-0.900919 -0.343657,-1.695322 -0.90625,-2.3125 0.562593,-0.617178 0.90625,-1.442831 0.90625,-2.34375 0,-0.900919 -0.343657,-1.695322 -0.90625,-2.3125 0.562593,-0.617178 0.90625,-1.442831 0.90625,-2.34375 0,-0.694809 -0.211074,-1.332151 -0.5625,-1.875 0.357854,-0.216938 0.646095,-0.487073 0.90625,-0.8125 z"
       style="fill:url(#radialGradient4872);fill-opacity:1;fill-rule:evenodd;stroke:none;filter:url(#filter4828)"
       inkscape:connector-curvature="0"
       transform="matrix(-1,0,0,-1,64,-16)" />
    <g
       transform="matrix(1.200851,0,0,1.200851,172.98867,-145.4255)"
       id="g4922">
      <g
         id="g4924"
         transform="matrix(0.99735656,0,0,0.99735656,1.2968829,0.34105797)">
        <path
           sodipodi:type="arc"
           style="fill:#e0c4a0;fill-opacity:1;fill-rule:evenodd;stroke:none"
           id="path4926"
           sodipodi:cx="-12.119091"
           sodipodi:cy="6.1658564"
           sodipodi:rx="2.9147182"
           sodipodi:ry="2.9147182"
           d="m -9.2043729,6.1658564 c 0,1.6097543 -1.3049641,2.9147181 -2.9147181,2.9147181 -1.609754,0 -2.914718,-1.3049638 -2.914718,-2.9147181 0,-1.6097544 1.304964,-2.9147182 2.914718,-2.9147182 1.609754,0 2.9147181,1.3049638 2.9147181,2.9147182 z"
           transform="matrix(0.99485695,0,0,0.99485695,82.167282,208.34671)" />
        <path
           transform="matrix(0.99485695,0,0,0.99485695,82.167282,211.56669)"
           d="m -9.2043729,6.1658564 c 0,1.6097543 -1.3049641,2.9147181 -2.9147181,2.9147181 -1.609754,0 -2.914718,-1.3049638 -2.914718,-2.9147181 0,-1.6097544 1.304964,-2.9147182 2.914718,-2.9147182 1.609754,0 2.9147181,1.3049638 2.9147181,2.9147182 z"
           sodipodi:ry="2.9147182"
           sodipodi:rx="2.9147182"
           sodipodi:cy="6.1658564"
           sodipodi:cx="-12.119091"
           id="path4928"
           style="fill:#e0c4a0;fill-opacity:1;fill-rule:evenodd;stroke:none"
           sodipodi:type="arc" />
        <path
           sodipodi:type="arc"
           style="fill:#e0c4a0;fill-opacity:1;fill-rule:evenodd;stroke:none"
           id="path4930"
           sodipodi:cx="-12.119091"
           sodipodi:cy="6.1658564"
           sodipodi:rx="2.9147182"
           sodipodi:ry="2.9147182"
           d="m -9.2043729,6.1658564 c 0,1.6097543 -1.3049641,2.9147181 -2.9147181,2.9147181 -1.609754,0 -2.914718,-1.3049638 -2.914718,-2.9147181 0,-1.6097544 1.304964,-2.9147182 2.914718,-2.9147182 1.609754,0 2.9147181,1.3049638 2.9147181,2.9147182 z"
           transform="matrix(0.99485695,0,0,0.99485695,82.167282,215.45282)" />
        <path
           sodipodi:type="arc"
           style="fill:#e0c4a0;fill-opacity:1;fill-rule:evenodd;stroke:none"
           id="path4932"
           sodipodi:cx="-12.119091"
           sodipodi:cy="6.1658564"
           sodipodi:rx="2.9147182"
           sodipodi:ry="2.9147182"
           d="m -9.2043729,6.1658564 c 0,1.6097543 -1.3049641,2.9147181 -2.9147181,2.9147181 -1.609754,0 -2.914718,-1.3049638 -2.914718,-2.9147181 0,-1.6097544 1.304964,-2.9147182 2.914718,-2.9147182 1.609754,0 2.9147181,1.3049638 2.9147181,2.9147182 z"
           transform="matrix(0.99485695,0,0,0.99485695,82.167282,219.33895)" />
        <path
           sodipodi:type="arc"
           style="fill:#e0c4a0;fill-opacity:1;fill-rule:evenodd;stroke:none"
           id="path4934"
           sodipodi:cx="-12.119091"
           sodipodi:cy="6.1658564"
           sodipodi:rx="2.9147182"
           sodipodi:ry="2.9147182"
           d="m -9.2043729,6.1658564 c 0,1.6097543 -1.3049641,2.9147181 -2.9147181,2.9147181 -1.609754,0 -2.914718,-1.3049638 -2.914718,-2.9147181 0,-1.6097544 1.304964,-2.9147182 2.914718,-2.9147182 1.609754,0 2.9147181,1.3049638 2.9147181,2.9147182 z"
           transform="matrix(0.99485695,0,0,0.99485695,82.167282,223.22508)" />
        <path
           transform="matrix(0.99485695,0,0,0.99485695,82.167282,227.11122)"
           d="m -9.2043729,6.1658564 c 0,1.6097543 -1.3049641,2.9147181 -2.9147181,2.9147181 -1.609754,0 -2.914718,-1.3049638 -2.914718,-2.9147181 0,-1.6097544 1.304964,-2.9147182 2.914718,-2.9147182 1.609754,0 2.9147181,1.3049638 2.9147181,2.9147182 z"
           sodipodi:ry="2.9147182"
           sodipodi:rx="2.9147182"
           sodipodi:cy="6.1658564"
           sodipodi:cx="-12.119091"
           id="path4936"
           style="fill:#e0c4a0;fill-opacity:1;fill-rule:evenodd;stroke:none"
           sodipodi:type="arc" />
        <path
           transform="matrix(0.99485695,0,0,0.99485695,82.167282,230.99735)"
           d="m -9.2043729,6.1658564 c 0,1.6097543 -1.3049641,2.9147181 -2.9147181,2.9147181 -1.609754,0 -2.914718,-1.3049638 -2.914718,-2.9147181 0,-1.6097544 1.304964,-2.9147182 2.914718,-2.9147182 1.609754,0 2.9147181,1.3049638 2.9147181,2.9147182 z"
           sodipodi:ry="2.9147182"
           sodipodi:rx="2.9147182"
           sodipodi:cy="6.1658564"
           sodipodi:cx="-12.119091"
           id="path4938"
           style="fill:#e0c4a0;fill-opacity:1;fill-rule:evenodd;stroke:none"
           sodipodi:type="arc" />
        <path
           sodipodi:type="arc"
           style="fill:#e0c4a0;fill-opacity:1;fill-rule:evenodd;stroke:none"
           id="path4940"
           sodipodi:cx="-12.119091"
           sodipodi:cy="6.1658564"
           sodipodi:rx="2.9147182"
           sodipodi:ry="2.9147182"
           d="m -9.2043729,6.1658564 c 0,1.6097543 -1.3049641,2.9147181 -2.9147181,2.9147181 -1.609754,0 -2.914718,-1.3049638 -2.914718,-2.9147181 0,-1.6097544 1.304964,-2.9147182 2.914718,-2.9147182 1.609754,0 2.9147181,1.3049638 2.9147181,2.9147182 z"
           transform="matrix(0.99485695,0,0,0.99485695,82.167282,234.88348)" />
        <path
           sodipodi:type="arc"
           style="fill:#e0c4a0;fill-opacity:1;fill-rule:evenodd;stroke:none"
           id="path4942"
           sodipodi:cx="-12.119091"
           sodipodi:cy="6.1658564"
           sodipodi:rx="2.9147182"
           sodipodi:ry="2.9147182"
           d="m -9.2043729,6.1658564 c 0,1.6097543 -1.3049641,2.9147181 -2.9147181,2.9147181 -1.609754,0 -2.914718,-1.3049638 -2.914718,-2.9147181 0,-1.6097544 1.304964,-2.9147182 2.914718,-2.9147182 1.609754,0 2.9147181,1.3049638 2.9147181,2.9147182 z"
           transform="matrix(0.99485695,0,0,0.99485695,82.167282,238.76962)" />
        <path
           transform="matrix(0.99485695,0,0,0.99485695,82.167282,242.65575)"
           d="m -9.2043729,6.1658564 c 0,1.6097543 -1.3049641,2.9147181 -2.9147181,2.9147181 -1.609754,0 -2.914718,-1.3049638 -2.914718,-2.9147181 0,-1.6097544 1.304964,-2.9147182 2.914718,-2.9147182 1.609754,0 2.9147181,1.3049638 2.9147181,2.9147182 z"
           sodipodi:ry="2.9147182"
           sodipodi:rx="2.9147182"
           sodipodi:cy="6.1658564"
           sodipodi:cx="-12.119091"
           id="path4944"
           style="fill:#e0c4a0;fill-opacity:1;fill-rule:evenodd;stroke:none"
           sodipodi:type="arc" />
        <path
           sodipodi:type="arc"
           style="fill:#e0c4a0;fill-opacity:1;fill-rule:evenodd;stroke:none"
           id="path4946"
           sodipodi:cx="-12.119091"
           sodipodi:cy="6.1658564"
           sodipodi:rx="2.9147182"
           sodipodi:ry="2.9147182"
           d="m -9.2043729,6.1658564 c 0,1.6097543 -1.3049641,2.9147181 -2.9147181,2.9147181 -1.609754,0 -2.914718,-1.3049638 -2.914718,-2.9147181 0,-1.6097544 1.304964,-2.9147182 2.914718,-2.9147182 1.609754,0 2.9147181,1.3049638 2.9147181,2.9147182 z"
           transform="matrix(0.99485695,0,0,0.99485695,82.167282,246.54188)" />
        <path
           transform="matrix(0.99485695,0,0,0.99485695,82.167282,250.42802)"
           d="m -9.2043729,6.1658564 c 0,1.6097543 -1.3049641,2.9147181 -2.9147181,2.9147181 -1.609754,0 -2.914718,-1.3049638 -2.914718,-2.9147181 0,-1.6097544 1.304964,-2.9147182 2.914718,-2.9147182 1.609754,0 2.9147181,1.3049638 2.9147181,2.9147182 z"
           sodipodi:ry="2.9147182"
           sodipodi:rx="2.9147182"
           sodipodi:cy="6.1658564"
           sodipodi:cx="-12.119091"
           id="path4948"
           style="fill:#e0c4a0;fill-opacity:1;fill-rule:evenodd;stroke:none"
           sodipodi:type="arc" />
        <path
           transform="matrix(0.99485695,0,0,0.99485695,82.167282,254.31415)"
           d="m -9.2043729,6.1658564 c 0,1.6097543 -1.3049641,2.9147181 -2.9147181,2.9147181 -1.609754,0 -2.914718,-1.3049638 -2.914718,-2.9147181 0,-1.6097544 1.304964,-2.9147182 2.914718,-2.9147182 1.609754,0 2.9147181,1.3049638 2.9147181,2.9147182 z"
           sodipodi:ry="2.9147182"
           sodipodi:rx="2.9147182"
           sodipodi:cy="6.1658564"
           sodipodi:cx="-12.119091"
           id="path4950"
           style="fill:#e0c4a0;fill-opacity:1;fill-rule:evenodd;stroke:none"
           sodipodi:type="arc" />
      </g>
      <g
         id="g4952"
         transform="matrix(1.0169887,0,0,1.0169887,-0.9692108,-3.8971581)">
        <path
           transform="matrix(0.99485695,0,0,0.99485695,73.173659,207.51401)"
           d="m -9.2043729,6.1658564 c 0,1.6097543 -1.3049641,2.9147181 -2.9147181,2.9147181 -1.609754,0 -2.914718,-1.3049638 -2.914718,-2.9147181 0,-1.6097544 1.304964,-2.9147182 2.914718,-2.9147182 1.609754,0 2.9147181,1.3049638 2.9147181,2.9147182 z"
           sodipodi:ry="2.9147182"
           sodipodi:rx="2.9147182"
           sodipodi:cy="6.1658564"
           sodipodi:cx="-12.119091"
           id="path4954"
           style="fill:#e0c4a0;fill-opacity:1;fill-rule:evenodd;stroke:none"
           sodipodi:type="arc" />
        <path
           transform="matrix(0.99485695,0,0,0.99485695,68.676846,207.51401)"
           d="m -9.2043729,6.1658564 c 0,1.6097543 -1.3049641,2.9147181 -2.9147181,2.9147181 -1.609754,0 -2.914718,-1.3049638 -2.914718,-2.9147181 0,-1.6097544 1.304964,-2.9147182 2.914718,-2.9147182 1.609754,0 2.9147181,1.3049638 2.9147181,2.9147182 z"
           sodipodi:ry="2.9147182"
           sodipodi:rx="2.9147182"
           sodipodi:cy="6.1658564"
           sodipodi:cx="-12.119091"
           id="path4956"
           style="fill:#e0c4a0;fill-opacity:1;fill-rule:evenodd;stroke:none"
           sodipodi:type="arc" />
        <path
           sodipodi:type="arc"
           style="fill:#e0c4a0;fill-opacity:1;fill-rule:evenodd;stroke:none"
           id="path4958"
           sodipodi:cx="-12.119091"
           sodipodi:cy="6.1658564"
           sodipodi:rx="2.9147182"
           sodipodi:ry="2.9147182"
           d="m -9.2043729,6.1658564 c 0,1.6097543 -1.3049641,2.9147181 -2.9147181,2.9147181 -1.609754,0 -2.914718,-1.3049638 -2.914718,-2.9147181 0,-1.6097544 1.304964,-2.9147182 2.914718,-2.9147182 1.609754,0 2.9147181,1.3049638 2.9147181,2.9147182 z"
           transform="matrix(0.99485695,0,0,0.99485695,64.180035,207.51401)" />
        <path
           transform="matrix(0.99485695,0,0,0.99485695,59.683222,207.51401)"
           d="m -9.2043729,6.1658564 c 0,1.6097543 -1.3049641,2.9147181 -2.9147181,2.9147181 -1.609754,0 -2.914718,-1.3049638 -2.914718,-2.9147181 0,-1.6097544 1.304964,-2.9147182 2.914718,-2.9147182 1.609754,0 2.9147181,1.3049638 2.9147181,2.9147182 z"
           sodipodi:ry="2.9147182"
           sodipodi:rx="2.9147182"
           sodipodi:cy="6.1658564"
           sodipodi:cx="-12.119091"
           id="path4960"
           style="fill:#e0c4a0;fill-opacity:1;fill-rule:evenodd;stroke:none"
           sodipodi:type="arc" />
        <path
           sodipodi:type="arc"
           style="fill:#e0c4a0;fill-opacity:1;fill-rule:evenodd;stroke:none"
           id="path4962"
           sodipodi:cx="-12.119091"
           sodipodi:cy="6.1658564"
           sodipodi:rx="2.9147182"
           sodipodi:ry="2.9147182"
           d="m -9.2043729,6.1658564 c 0,1.6097543 -1.3049641,2.9147181 -2.9147181,2.9147181 -1.609754,0 -2.914718,-1.3049638 -2.914718,-2.9147181 0,-1.6097544 1.304964,-2.9147182 2.914718,-2.9147182 1.609754,0 2.9147181,1.3049638 2.9147181,2.9147182 z"
           transform="matrix(0.99485695,0,0,0.99485695,55.186412,207.51401)" />
        <path
           sodipodi:type="arc"
           style="fill:#e0c4a0;fill-opacity:1;fill-rule:evenodd;stroke:none"
           id="path4964"
           sodipodi:cx="-12.119091"
           sodipodi:cy="6.1658564"
           sodipodi:rx="2.9147182"
           sodipodi:ry="2.9147182"
           d="m -9.2043729,6.1658564 c 0,1.6097543 -1.3049641,2.9147181 -2.9147181,2.9147181 -1.609754,0 -2.914718,-1.3049638 -2.914718,-2.9147181 0,-1.6097544 1.304964,-2.9147182 2.914718,-2.9147182 1.609754,0 2.9147181,1.3049638 2.9147181,2.9147182 z"
           transform="matrix(0.99485695,0,0,0.99485695,50.6896,207.51401)" />
        <path
           transform="matrix(0.99485695,0,0,0.99485695,46.192788,207.51401)"
           d="m -9.2043729,6.1658564 c 0,1.6097543 -1.3049641,2.9147181 -2.9147181,2.9147181 -1.609754,0 -2.914718,-1.3049638 -2.914718,-2.9147181 0,-1.6097544 1.304964,-2.9147182 2.914718,-2.9147182 1.609754,0 2.9147181,1.3049638 2.9147181,2.9147182 z"
           sodipodi:ry="2.9147182"
           sodipodi:rx="2.9147182"
           sodipodi:cy="6.1658564"
           sodipodi:cx="-12.119091"
           id="path4966"
           style="fill:#e0c4a0;fill-opacity:1;fill-rule:evenodd;stroke:none"
           sodipodi:type="arc" />
        <path
           transform="matrix(0.99485695,0,0,0.99485695,41.695976,207.51401)"
           d="m -9.2043729,6.1658564 c 0,1.6097543 -1.3049641,2.9147181 -2.9147181,2.9147181 -1.609754,0 -2.914718,-1.3049638 -2.914718,-2.9147181 0,-1.6097544 1.304964,-2.9147182 2.914718,-2.9147182 1.609754,0 2.9147181,1.3049638 2.9147181,2.9147182 z"
           sodipodi:ry="2.9147182"
           sodipodi:rx="2.9147182"
           sodipodi:cy="6.1658564"
           sodipodi:cx="-12.119091"
           id="path4968"
           style="fill:#e0c4a0;fill-opacity:1;fill-rule:evenodd;stroke:none"
           sodipodi:type="arc" />
        <path
           sodipodi:type="arc"
           style="fill:#e0c4a0;fill-opacity:1;fill-rule:evenodd;stroke:none"
           id="path4970"
           sodipodi:cx="-12.119091"
           sodipodi:cy="6.1658564"
           sodipodi:rx="2.9147182"
           sodipodi:ry="2.9147182"
           d="m -9.2043729,6.1658564 c 0,1.6097543 -1.3049641,2.9147181 -2.9147181,2.9147181 -1.609754,0 -2.914718,-1.3049638 -2.914718,-2.9147181 0,-1.6097544 1.304964,-2.9147182 2.914718,-2.9147182 1.609754,0 2.9147181,1.3049638 2.9147181,2.9147182 z"
           transform="matrix(0.99485695,0,0,0.99485695,37.199164,207.51401)" />
        <path
           sodipodi:type="arc"
           style="fill:#e0c4a0;fill-opacity:1;fill-rule:evenodd;stroke:none"
           id="path4972"
           sodipodi:cx="-12.119091"
           sodipodi:cy="6.1658564"
           sodipodi:rx="2.9147182"
           sodipodi:ry="2.9147182"
           d="m -9.2043729,6.1658564 c 0,1.6097543 -1.3049641,2.9147181 -2.9147181,2.9147181 -1.609754,0 -2.914718,-1.3049638 -2.914718,-2.9147181 0,-1.6097544 1.304964,-2.9147182 2.914718,-2.9147182 1.609754,0 2.9147181,1.3049638 2.9147181,2.9147182 z"
           transform="matrix(0.99485695,0,0,0.99485695,77.670473,207.51401)" />
        <path
           transform="matrix(0.99485695,0,0,0.99485695,82.167285,207.51401)"
           d="m -9.2043729,6.1658564 c 0,1.6097543 -1.3049641,2.9147181 -2.9147181,2.9147181 -1.609754,0 -2.914718,-1.3049638 -2.914718,-2.9147181 0,-1.6097544 1.304964,-2.9147182 2.914718,-2.9147182 1.609754,0 2.9147181,1.3049638 2.9147181,2.9147182 z"
           sodipodi:ry="2.9147182"
           sodipodi:rx="2.9147182"
           sodipodi:cy="6.1658564"
           sodipodi:cx="-12.119091"
           id="path4974"
           style="fill:#e0c4a0;fill-opacity:1;fill-rule:evenodd;stroke:none"
           sodipodi:type="arc" />
      </g>
      <g
         id="g4976"
         transform="matrix(1.0169887,0,0,1.0169887,-0.9692108,43.598925)">
        <path
           sodipodi:type="arc"
           style="fill:#e0c4a0;fill-opacity:1;fill-rule:evenodd;stroke:none"
           id="path4978"
           sodipodi:cx="-12.119091"
           sodipodi:cy="6.1658564"
           sodipodi:rx="2.9147182"
           sodipodi:ry="2.9147182"
           d="m -9.2043729,6.1658564 c 0,1.6097543 -1.3049641,2.9147181 -2.9147181,2.9147181 -1.609754,0 -2.914718,-1.3049638 -2.914718,-2.9147181 0,-1.6097544 1.304964,-2.9147182 2.914718,-2.9147182 1.609754,0 2.9147181,1.3049638 2.9147181,2.9147182 z"
           transform="matrix(0.99485695,0,0,0.99485695,73.173659,207.51401)" />
        <path
           sodipodi:type="arc"
           style="fill:#e0c4a0;fill-opacity:1;fill-rule:evenodd;stroke:none"
           id="path4980"
           sodipodi:cx="-12.119091"
           sodipodi:cy="6.1658564"
           sodipodi:rx="2.9147182"
           sodipodi:ry="2.9147182"
           d="m -9.2043729,6.1658564 c 0,1.6097543 -1.3049641,2.9147181 -2.9147181,2.9147181 -1.609754,0 -2.914718,-1.3049638 -2.914718,-2.9147181 0,-1.6097544 1.304964,-2.9147182 2.914718,-2.9147182 1.609754,0 2.9147181,1.3049638 2.9147181,2.9147182 z"
           transform="matrix(0.99485695,0,0,0.99485695,68.676846,207.51401)" />
        <path
           transform="matrix(0.99485695,0,0,0.99485695,64.180035,207.51401)"
           d="m -9.2043729,6.1658564 c 0,1.6097543 -1.3049641,2.9147181 -2.9147181,2.9147181 -1.609754,0 -2.914718,-1.3049638 -2.914718,-2.9147181 0,-1.6097544 1.304964,-2.9147182 2.914718,-2.9147182 1.609754,0 2.9147181,1.3049638 2.9147181,2.9147182 z"
           sodipodi:ry="2.9147182"
           sodipodi:rx="2.9147182"
           sodipodi:cy="6.1658564"
           sodipodi:cx="-12.119091"
           id="path4982"
           style="fill:#e0c4a0;fill-opacity:1;fill-rule:evenodd;stroke:none"
           sodipodi:type="arc" />
        <path
           sodipodi:type="arc"
           style="fill:#e0c4a0;fill-opacity:1;fill-rule:evenodd;stroke:none"
           id="path4984"
           sodipodi:cx="-12.119091"
           sodipodi:cy="6.1658564"
           sodipodi:rx="2.9147182"
           sodipodi:ry="2.9147182"
           d="m -9.2043729,6.1658564 c 0,1.6097543 -1.3049641,2.9147181 -2.9147181,2.9147181 -1.609754,0 -2.914718,-1.3049638 -2.914718,-2.9147181 0,-1.6097544 1.304964,-2.9147182 2.914718,-2.9147182 1.609754,0 2.9147181,1.3049638 2.9147181,2.9147182 z"
           transform="matrix(0.99485695,0,0,0.99485695,59.683222,207.51401)" />
        <path
           transform="matrix(0.99485695,0,0,0.99485695,55.186412,207.51401)"
           d="m -9.2043729,6.1658564 c 0,1.6097543 -1.3049641,2.9147181 -2.9147181,2.9147181 -1.609754,0 -2.914718,-1.3049638 -2.914718,-2.9147181 0,-1.6097544 1.304964,-2.9147182 2.914718,-2.9147182 1.609754,0 2.9147181,1.3049638 2.9147181,2.9147182 z"
           sodipodi:ry="2.9147182"
           sodipodi:rx="2.9147182"
           sodipodi:cy="6.1658564"
           sodipodi:cx="-12.119091"
           id="path4986"
           style="fill:#e0c4a0;fill-opacity:1;fill-rule:evenodd;stroke:none"
           sodipodi:type="arc" />
        <path
           transform="matrix(0.99485695,0,0,0.99485695,50.6896,207.51401)"
           d="m -9.2043729,6.1658564 c 0,1.6097543 -1.3049641,2.9147181 -2.9147181,2.9147181 -1.609754,0 -2.914718,-1.3049638 -2.914718,-2.9147181 0,-1.6097544 1.304964,-2.9147182 2.914718,-2.9147182 1.609754,0 2.9147181,1.3049638 2.9147181,2.9147182 z"
           sodipodi:ry="2.9147182"
           sodipodi:rx="2.9147182"
           sodipodi:cy="6.1658564"
           sodipodi:cx="-12.119091"
           id="path4988"
           style="fill:#e0c4a0;fill-opacity:1;fill-rule:evenodd;stroke:none"
           sodipodi:type="arc" />
        <path
           sodipodi:type="arc"
           style="fill:#e0c4a0;fill-opacity:1;fill-rule:evenodd;stroke:none"
           id="path4990"
           sodipodi:cx="-12.119091"
           sodipodi:cy="6.1658564"
           sodipodi:rx="2.9147182"
           sodipodi:ry="2.9147182"
           d="m -9.2043729,6.1658564 c 0,1.6097543 -1.3049641,2.9147181 -2.9147181,2.9147181 -1.609754,0 -2.914718,-1.3049638 -2.914718,-2.9147181 0,-1.6097544 1.304964,-2.9147182 2.914718,-2.9147182 1.609754,0 2.9147181,1.3049638 2.9147181,2.9147182 z"
           transform="matrix(0.99485695,0,0,0.99485695,46.192788,207.51401)" />
        <path
           sodipodi:type="arc"
           style="fill:#e0c4a0;fill-opacity:1;fill-rule:evenodd;stroke:none"
           id="path4992"
           sodipodi:cx="-12.119091"
           sodipodi:cy="6.1658564"
           sodipodi:rx="2.9147182"
           sodipodi:ry="2.9147182"
           d="m -9.2043729,6.1658564 c 0,1.6097543 -1.3049641,2.9147181 -2.9147181,2.9147181 -1.609754,0 -2.914718,-1.3049638 -2.914718,-2.9147181 0,-1.6097544 1.304964,-2.9147182 2.914718,-2.9147182 1.609754,0 2.9147181,1.3049638 2.9147181,2.9147182 z"
           transform="matrix(0.99485695,0,0,0.99485695,41.695976,207.51401)" />
        <path
           transform="matrix(0.99485695,0,0,0.99485695,37.199164,207.51401)"
           d="m -9.2043729,6.1658564 c 0,1.6097543 -1.3049641,2.9147181 -2.9147181,2.9147181 -1.609754,0 -2.914718,-1.3049638 -2.914718,-2.9147181 0,-1.6097544 1.304964,-2.9147182 2.914718,-2.9147182 1.609754,0 2.9147181,1.3049638 2.9147181,2.9147182 z"
           sodipodi:ry="2.9147182"
           sodipodi:rx="2.9147182"
           sodipodi:cy="6.1658564"
           sodipodi:cx="-12.119091"
           id="path4994"
           style="fill:#e0c4a0;fill-opacity:1;fill-rule:evenodd;stroke:none"
           sodipodi:type="arc" />
        <path
           transform="matrix(0.99485695,0,0,0.99485695,77.670473,207.51401)"
           d="m -9.2043729,6.1658564 c 0,1.6097543 -1.3049641,2.9147181 -2.9147181,2.9147181 -1.609754,0 -2.914718,-1.3049638 -2.914718,-2.9147181 0,-1.6097544 1.304964,-2.9147182 2.914718,-2.9147182 1.609754,0 2.9147181,1.3049638 2.9147181,2.9147182 z"
           sodipodi:ry="2.9147182"
           sodipodi:rx="2.9147182"
           sodipodi:cy="6.1658564"
           sodipodi:cx="-12.119091"
           id="path4996"
           style="fill:#e0c4a0;fill-opacity:1;fill-rule:evenodd;stroke:none"
           sodipodi:type="arc" />
        <path
           sodipodi:type="arc"
           style="fill:#e0c4a0;fill-opacity:1;fill-rule:evenodd;stroke:none"
           id="path4998"
           sodipodi:cx="-12.119091"
           sodipodi:cy="6.1658564"
           sodipodi:rx="2.9147182"
           sodipodi:ry="2.9147182"
           d="m -9.2043729,6.1658564 c 0,1.6097543 -1.3049641,2.9147181 -2.9147181,2.9147181 -1.609754,0 -2.914718,-1.3049638 -2.914718,-2.9147181 0,-1.6097544 1.304964,-2.9147182 2.914718,-2.9147182 1.609754,0 2.9147181,1.3049638 2.9147181,2.9147182 z"
           transform="matrix(0.99485695,0,0,0.99485695,82.167285,207.51401)" />
      </g>
      <g
         id="g5000"
         transform="matrix(0.99735656,0,0,0.99735656,-46.21453,0.34105797)">
        <path
           transform="matrix(0.99485695,0,0,0.99485695,82.167282,208.34671)"
           d="m -9.2043729,6.1658564 c 0,1.6097543 -1.3049641,2.9147181 -2.9147181,2.9147181 -1.609754,0 -2.914718,-1.3049638 -2.914718,-2.9147181 0,-1.6097544 1.304964,-2.9147182 2.914718,-2.9147182 1.609754,0 2.9147181,1.3049638 2.9147181,2.9147182 z"
           sodipodi:ry="2.9147182"
           sodipodi:rx="2.9147182"
           sodipodi:cy="6.1658564"
           sodipodi:cx="-12.119091"
           id="path5002"
           style="fill:#e0c4a0;fill-opacity:1;fill-rule:evenodd;stroke:none"
           sodipodi:type="arc" />
        <path
           sodipodi:type="arc"
           style="fill:#e0c4a0;fill-opacity:1;fill-rule:evenodd;stroke:none"
           id="path5004"
           sodipodi:cx="-12.119091"
           sodipodi:cy="6.1658564"
           sodipodi:rx="2.9147182"
           sodipodi:ry="2.9147182"
           d="m -9.2043729,6.1658564 c 0,1.6097543 -1.3049641,2.9147181 -2.9147181,2.9147181 -1.609754,0 -2.914718,-1.3049638 -2.914718,-2.9147181 0,-1.6097544 1.304964,-2.9147182 2.914718,-2.9147182 1.609754,0 2.9147181,1.3049638 2.9147181,2.9147182 z"
           transform="matrix(0.99485695,0,0,0.99485695,82.167282,211.56669)" />
        <path
           transform="matrix(0.99485695,0,0,0.99485695,82.167282,215.45282)"
           d="m -9.2043729,6.1658564 c 0,1.6097543 -1.3049641,2.9147181 -2.9147181,2.9147181 -1.609754,0 -2.914718,-1.3049638 -2.914718,-2.9147181 0,-1.6097544 1.304964,-2.9147182 2.914718,-2.9147182 1.609754,0 2.9147181,1.3049638 2.9147181,2.9147182 z"
           sodipodi:ry="2.9147182"
           sodipodi:rx="2.9147182"
           sodipodi:cy="6.1658564"
           sodipodi:cx="-12.119091"
           id="path5006"
           style="fill:#e0c4a0;fill-opacity:1;fill-rule:evenodd;stroke:none"
           sodipodi:type="arc" />
        <path
           transform="matrix(0.99485695,0,0,0.99485695,82.167282,219.33895)"
           d="m -9.2043729,6.1658564 c 0,1.6097543 -1.3049641,2.9147181 -2.9147181,2.9147181 -1.609754,0 -2.914718,-1.3049638 -2.914718,-2.9147181 0,-1.6097544 1.304964,-2.9147182 2.914718,-2.9147182 1.609754,0 2.9147181,1.3049638 2.9147181,2.9147182 z"
           sodipodi:ry="2.9147182"
           sodipodi:rx="2.9147182"
           sodipodi:cy="6.1658564"
           sodipodi:cx="-12.119091"
           id="path5008"
           style="fill:#e0c4a0;fill-opacity:1;fill-rule:evenodd;stroke:none"
           sodipodi:type="arc" />
        <path
           transform="matrix(0.99485695,0,0,0.99485695,82.167282,223.22508)"
           d="m -9.2043729,6.1658564 c 0,1.6097543 -1.3049641,2.9147181 -2.9147181,2.9147181 -1.609754,0 -2.914718,-1.3049638 -2.914718,-2.9147181 0,-1.6097544 1.304964,-2.9147182 2.914718,-2.9147182 1.609754,0 2.9147181,1.3049638 2.9147181,2.9147182 z"
           sodipodi:ry="2.9147182"
           sodipodi:rx="2.9147182"
           sodipodi:cy="6.1658564"
           sodipodi:cx="-12.119091"
           id="path5010"
           style="fill:#e0c4a0;fill-opacity:1;fill-rule:evenodd;stroke:none"
           sodipodi:type="arc" />
        <path
           sodipodi:type="arc"
           style="fill:#e0c4a0;fill-opacity:1;fill-rule:evenodd;stroke:none"
           id="path5012"
           sodipodi:cx="-12.119091"
           sodipodi:cy="6.1658564"
           sodipodi:rx="2.9147182"
           sodipodi:ry="2.9147182"
           d="m -9.2043729,6.1658564 c 0,1.6097543 -1.3049641,2.9147181 -2.9147181,2.9147181 -1.609754,0 -2.914718,-1.3049638 -2.914718,-2.9147181 0,-1.6097544 1.304964,-2.9147182 2.914718,-2.9147182 1.609754,0 2.9147181,1.3049638 2.9147181,2.9147182 z"
           transform="matrix(0.99485695,0,0,0.99485695,82.167282,227.11122)" />
        <path
           sodipodi:type="arc"
           style="fill:#e0c4a0;fill-opacity:1;fill-rule:evenodd;stroke:none"
           id="path5014"
           sodipodi:cx="-12.119091"
           sodipodi:cy="6.1658564"
           sodipodi:rx="2.9147182"
           sodipodi:ry="2.9147182"
           d="m -9.2043729,6.1658564 c 0,1.6097543 -1.3049641,2.9147181 -2.9147181,2.9147181 -1.609754,0 -2.914718,-1.3049638 -2.914718,-2.9147181 0,-1.6097544 1.304964,-2.9147182 2.914718,-2.9147182 1.609754,0 2.9147181,1.3049638 2.9147181,2.9147182 z"
           transform="matrix(0.99485695,0,0,0.99485695,82.167282,230.99735)" />
        <path
           transform="matrix(0.99485695,0,0,0.99485695,82.167282,234.88348)"
           d="m -9.2043729,6.1658564 c 0,1.6097543 -1.3049641,2.9147181 -2.9147181,2.9147181 -1.609754,0 -2.914718,-1.3049638 -2.914718,-2.9147181 0,-1.6097544 1.304964,-2.9147182 2.914718,-2.9147182 1.609754,0 2.9147181,1.3049638 2.9147181,2.9147182 z"
           sodipodi:ry="2.9147182"
           sodipodi:rx="2.9147182"
           sodipodi:cy="6.1658564"
           sodipodi:cx="-12.119091"
           id="path5016"
           style="fill:#e0c4a0;fill-opacity:1;fill-rule:evenodd;stroke:none"
           sodipodi:type="arc" />
        <path
           transform="matrix(0.99485695,0,0,0.99485695,82.167282,238.76962)"
           d="m -9.2043729,6.1658564 c 0,1.6097543 -1.3049641,2.9147181 -2.9147181,2.9147181 -1.609754,0 -2.914718,-1.3049638 -2.914718,-2.9147181 0,-1.6097544 1.304964,-2.9147182 2.914718,-2.9147182 1.609754,0 2.9147181,1.3049638 2.9147181,2.9147182 z"
           sodipodi:ry="2.9147182"
           sodipodi:rx="2.9147182"
           sodipodi:cy="6.1658564"
           sodipodi:cx="-12.119091"
           id="path5018"
           style="fill:#e0c4a0;fill-opacity:1;fill-rule:evenodd;stroke:none"
           sodipodi:type="arc" />
        <path
           sodipodi:type="arc"
           style="fill:#e0c4a0;fill-opacity:1;fill-rule:evenodd;stroke:none"
           id="path5020"
           sodipodi:cx="-12.119091"
           sodipodi:cy="6.1658564"
           sodipodi:rx="2.9147182"
           sodipodi:ry="2.9147182"
           d="m -9.2043729,6.1658564 c 0,1.6097543 -1.3049641,2.9147181 -2.9147181,2.9147181 -1.609754,0 -2.914718,-1.3049638 -2.914718,-2.9147181 0,-1.6097544 1.304964,-2.9147182 2.914718,-2.9147182 1.609754,0 2.9147181,1.3049638 2.9147181,2.9147182 z"
           transform="matrix(0.99485695,0,0,0.99485695,82.167282,242.65575)" />
        <path
           transform="matrix(0.99485695,0,0,0.99485695,82.167282,246.54188)"
           d="m -9.2043729,6.1658564 c 0,1.6097543 -1.3049641,2.9147181 -2.9147181,2.9147181 -1.609754,0 -2.914718,-1.3049638 -2.914718,-2.9147181 0,-1.6097544 1.304964,-2.9147182 2.914718,-2.9147182 1.609754,0 2.9147181,1.3049638 2.9147181,2.9147182 z"
           sodipodi:ry="2.9147182"
           sodipodi:rx="2.9147182"
           sodipodi:cy="6.1658564"
           sodipodi:cx="-12.119091"
           id="path5022"
           style="fill:#e0c4a0;fill-opacity:1;fill-rule:evenodd;stroke:none"
           sodipodi:type="arc" />
        <path
           sodipodi:type="arc"
           style="fill:#e0c4a0;fill-opacity:1;fill-rule:evenodd;stroke:none"
           id="path5024"
           sodipodi:cx="-12.119091"
           sodipodi:cy="6.1658564"
           sodipodi:rx="2.9147182"
           sodipodi:ry="2.9147182"
           d="m -9.2043729,6.1658564 c 0,1.6097543 -1.3049641,2.9147181 -2.9147181,2.9147181 -1.609754,0 -2.914718,-1.3049638 -2.914718,-2.9147181 0,-1.6097544 1.304964,-2.9147182 2.914718,-2.9147182 1.609754,0 2.9147181,1.3049638 2.9147181,2.9147182 z"
           transform="matrix(0.99485695,0,0,0.99485695,82.167282,250.42802)" />
        <path
           sodipodi:type="arc"
           style="fill:#e0c4a0;fill-opacity:1;fill-rule:evenodd;stroke:none"
           id="path5026"
           sodipodi:cx="-12.119091"
           sodipodi:cy="6.1658564"
           sodipodi:rx="2.9147182"
           sodipodi:ry="2.9147182"
           d="m -9.2043729,6.1658564 c 0,1.6097543 -1.3049641,2.9147181 -2.9147181,2.9147181 -1.609754,0 -2.914718,-1.3049638 -2.914718,-2.9147181 0,-1.6097544 1.304964,-2.9147182 2.914718,-2.9147182 1.609754,0 2.9147181,1.3049638 2.9147181,2.9147182 z"
           transform="matrix(0.99485695,0,0,0.99485695,82.167282,254.31415)" />
      </g>
    </g>
  </g>
  <g
     style="display:inline"
     inkscape:label="Main"
     id="layer3"
     inkscape:groupmode="layer">
    <rect
       style="fill:#e0c4a0;fill-opacity:1;fill-rule:evenodd;stroke:none"
       id="rect5223"
       width="58"
       height="58"
       x="3.0000014"
       y="3"
       rx="3.0686812"
       ry="6.2598629" />
    <rect
       style="fill:none;stroke:url(#linearGradient4998);stroke-width:0.44515321;stroke-linejoin:round;stroke-miterlimit:4;stroke-opacity:1;stroke-dasharray:none;filter:url(#filter4250)"
       id="rect4894"
       width="40.981037"
       height="40.981037"
       x="26.975845"
       y="216.68739"
       rx="0.88056058"
       ry="4.4230294"
       transform="matrix(1.1232088,0,0,1.1232088,-21.314638,-234.40032)" />
    <text
       transform="matrix(1.200851,0,0,1.200851,-27.000032,-254.81536)"
       xml:space="preserve"
       style="font-size:59.95748137999999727px;font-style:normal;font-variant:normal;font-weight:normal;font-stretch:normal;text-align:start;line-height:125%;letter-spacing:0px;word-spacing:0px;writing-mode:lr-tb;text-anchor:start;fill:#fafde3;fill-opacity:1;stroke:#edf28e;stroke-width:0.83274274999999998;stroke-miterlimit:4;stroke-opacity:1;stroke-dasharray:none;font-family:Gothik Steel;-inkscape-font-specification:Gothik Steel;filter:url(#filter4282)"
       x="34.493793"
       y="262.26431"
       id="text4101"
       sodipodi:linespacing="125%"><tspan
         sodipodi:role="line"
         id="tspan4103"
         x="34.493793"
         y="262.26431">s</tspan></text>
    <rect
       transform="matrix(1.2986978,0,0,1.2989027,-29.644462,-276.07103)"
       ry="4.4230294"
       rx="2.168237"
       y="216.68739"
       x="26.975845"
       height="40.981037"
       width="40.981037"
       id="rect4203"
       style="opacity:0.5;fill:url(#radialGradient4677);fill-opacity:1;fill-rule:evenodd;stroke:#f7dc89;stroke-width:5.6525569;stroke-linejoin:round;stroke-miterlimit:4;stroke-opacity:1;stroke-dasharray:none;filter:url(#filter5249)" />
  </g>
</svg>
